<?xml version="1.0" encoding="utf-8"?> <svg version="1.1" id="Layer_1" xmlns="http://www.w3.org/2000/svg" xmlns:xlink="http://www.w3.org/1999/xlink" x="0px" y="0px" viewBox="0 0 1200 1200" style="enable-background:new 0 0 1200 1200;" xml:space="preserve"><style type="text/css">.st0{fill:#53100F;}
	.st1{fill:#FFFFFF;}</style><rect class="st0" width="1200" height="1200"/><path class="st1" d="M847.049,645.166c-0.385-8.659-1.078-18.01-2.136-28.362l-0.096-0.962c-1.039-10.044-2.194-20.338-4.002-30.556
	c-2.405-13.623-5.118-27.708-8.409-41.735c-7.433-31.79-18.405-62.648-32.711-91.994c-20.281-41.35-44.121-74.196-72.618-100.057
	c-16.645-15.226-35.513-27.827-55.955-37.367c-20.298-9.111-42.107-14.389-64.325-15.567c-12.034-0.555-24.093,0.258-35.943,2.424
	c-17.995,3.273-35.385,9.275-51.568,17.799c-24.572,12.815-46.18,30.286-66.788,53.376c-17.315,19.634-32.259,41.237-44.525,64.363
	c-17.047,31.968-30.126,65.899-38.945,101.038c-4.894,19.4-8.748,39.049-11.545,58.86c-1.347,9.39-2.559,19.684-3.54,32.422
	c-0.981,12.738-1.482,24.129-1.789,37.675c0,1.501-0.096,19.242,0.327,26.669c0.52,9.121,0.789,17.664,1.482,26.419
	c0.808,10.256,1.809,21.166,3.463,31.922c1.924,13.007,4.233,26.438,7.293,41.1c5.91,28.261,14.552,55.88,25.803,82.47
	c17.318,40.812,37.791,74.311,62.901,102.135c15.67,17.791,33.876,33.177,54.031,45.66c29.574,17.856,60.65,26.727,90.532,27.073
	c9.558,0.181,19.111-0.534,28.535-2.136c15.377-2.396,30.345-6.93,44.467-13.469c31.364-14.22,59.053-36.559,84.509-67.5
	c19.242-23.302,35.328-50.028,49.778-81.989c12.5-27.811,22.132-56.823,28.747-86.588c3.848-16.875,6.581-32.095,8.909-49.22
	c1.174-8.717,2.444-19.492,3.002-27.9c0.693-10.891,1.751-27.188,1.924-37.714c0-1.52,0-3.04,0-4.695
	C847.78,667.544,847.568,656.384,847.049,645.166z M776.028,460.158c2.54,0.77,2.713,3.29,2.713,5.619v90.166
	c0,5.157-1.443,6.619-6.484,6.619h-67.5c-1.924,0-3.367-0.346-4.118-1.924c-0.328-1.521,0.008-3.11,0.924-4.368
	c2.925-4.291,6.138-8.389,9.255-12.565l60.361-80.488C772.372,461.543,773.719,459.465,776.028,460.158L776.028,460.158z
	 M699.465,667.968h-72.907c-2.117,0-4.272-0.693-4.656-1.789c-0.52-1.773-0.099-3.688,1.116-5.08
	c7.523-10.314,15.22-20.454,22.878-30.652c11.141-14.854,22.359-29.69,33.404-44.602c2.103-3.236,5.766-5.111,9.621-4.926
	c27.997,0.212,55.993,0.115,83.99,0.115c4.368,0,5.772,1.347,5.772,5.773c0,24.937,0,49.874,0,74.812c0,4.58-1.751,6.331-6.35,6.331
	L699.465,667.968z M764.656,692.443c-19.498,30.877-39.003,61.753-58.514,92.629c-3.714,5.888-7.485,11.776-11.16,17.722
	c-1.436,2.639-4.276,4.202-7.273,4.002c-23.937-0.115-47.873,0-71.81,0c-4.252,0-5.676-1.366-5.676-5.638
	c0-36.444,0-72.888,0-109.331c0-4.31,1.924-6.023,6.388-6.023h144.428C765.714,685.824,767.176,688.441,764.656,692.443z
	 M610.722,442.417V330.065c0-6.273,1.559-7.37,7.908-6.677c29.594,3.194,59.649,18.376,84.471,38.81
	c22.628,18.626,40.831,40.85,56.282,65.633c1.52,2.424,3.079,5.003,4.56,7.447c1.789,3.002,2.117,5.657,0,8.505
	c-6.254,8.312-12.449,16.682-18.703,25.014c-22.243,29.799-44.506,59.547-66.788,89.243c-2.017,3.011-5.462,4.748-9.082,4.58
	c-17.318-0.115-34.635,0-51.953,0c-5.118,0-6.754-1.635-6.754-6.754L610.722,442.417z M610.183,586.864
	c0-4.637,1.308-5.926,5.888-5.926c12.488,0,25.014,0,37.483,0c1.424,0,3.579,0.635,4.06,1.635c0.34,1.514-0.013,3.101-0.962,4.329
	c-13.213,17.92-26.496,35.783-39.849,53.588c-0.438,0.57-0.935,1.092-1.482,1.559c-2.309,2.02-4.118,1.482-4.868-1.501
	c-0.193-0.871-0.27-1.764-0.231-2.655c0-8.447,0-16.913,0-25.361c0-8.447-0.019-17.144,0-25.688L610.183,586.864z M614.936,929.539
	c-0.779,1.18-2.366,1.505-3.546,0.726c-0.711-0.469-1.141-1.26-1.149-2.112c0-13.315,0-38.599,0-49.913c0-15.56,0-31.127,0-46.7
	c0-4.926,1.501-6.446,6.388-6.446c18.53,0,37.059,0,55.589,0c1.789,0,4.426,0.712,5.08,1.924c0.654,1.212-0.192,3.848-1.154,5.349
	c-16.355,26.169-32.794,52.293-49.316,78.371l-9.736,15.393L614.936,929.539z M387.884,561.888
	c0.903-6.45,2.286-12.824,4.137-19.068c8.174-32.113,20.042-63.171,35.366-92.552c11.019-21.049,24.36-40.799,39.773-58.88
	c18.491-21.743,39.984-40.119,65.691-52.895c12.079-6.155,24.933-10.653,38.214-13.373c5.161-1.082,10.386-1.834,15.643-2.251
	c2.704-0.455,5.264,1.368,5.719,4.072c0.068,0.403,0.086,0.813,0.053,1.22c0,2.271,0,4.522,0,6.754v112.872
	c0,38.483,0.289,76.967-0.096,115.585c-0.174,23.289-7.966,45.88-22.186,64.325c-13.527,18.613-33.288,31.75-55.685,37.021
	c-6.812,1.429-13.73,2.291-20.685,2.578c-15.703,1.145-31.437-1.757-45.699-8.428c-27.881-12.969-46.719-34.039-56.07-63.497
	c-3.679-10.76-5.056-22.173-4.041-33.5L387.884,561.888z M424.79,716.995c2.463-0.693,3.733,1.924,4.945,3.848
	c17.831,27.144,35.648,54.3,53.453,81.469c3.579,5.465,7.177,10.929,10.698,16.432c2.636,4.098,1.924,6.427-2.444,8.466
	c-14.233,6.84-29.378,11.59-44.968,14.104c-5.946,0.847-11.891,1.635-17.856,2.078c-4.406,0.327-5.965-1.462-5.965-5.907
	c0-19.242,0-38.483,0-57.725c0-18.882,0-37.771,0-56.667c0.135-2.347-0.423-5.368,2.271-6.119L424.79,716.995z M470.662,751.63
	c-12.725-19.357-25.45-38.721-38.176-58.091c-0.346-0.52-0.712-1.039-1.02-1.578c-2.059-3.598-0.635-6.215,3.541-6.292
	c5.772,0,11.545,0,17.318,0h126.61c6.023,0,7.523,1.655,6.869,7.697c-2.209,20.17-8.002,39.784-17.106,57.917
	c-9.596,19.144-22.838,36.23-38.984,50.298c-3.848,3.367-7.87,6.542-11.911,9.621s-6.196,2.617-9.159-1.924L470.662,751.63z
	 M526.463,826.25c4.156-3.29,8.428-6.427,12.449-9.852c19.581-16.596,35.447-37.13,46.565-60.265
	c0.793-1.607,1.796-3.102,2.982-4.445c1.212-1.366,2.521-1.039,3.021,0.693c0.451,1.551,0.684,3.157,0.693,4.772
	c0,27.9,0,55.801,0,83.701c0,27.9,0,55.621,0,83.162c0,2.232,0.462,5.138-2.04,5.907s-3.848-1.924-4.984-3.848
	c-18.972-28.875-37.925-57.738-56.859-86.588c-1.135-1.732-2.309-3.406-3.387-5.176c-1.943-3.444-1.558-5.368,1.751-7.985
	L526.463,826.25z M590.307,630.177c0.296-0.553,0.983-0.762,1.536-0.466c0.383,0.205,0.616,0.61,0.6,1.044v19.242
	c0,3.945,0,7.908,0,11.853c0,4.253-1.924,6.061-6.061,6.08h-23.763c-1.548,0.275-3.077-0.577-3.656-2.04
	c-0.596-1.443,0.654-2.713,1.597-3.579c4.195-3.848,8.87-7.331,12.834-11.43c4.483-4.618,8.389-9.775,12.565-14.72L590.307,630.177z
	 M404.759,835.64c-0.038,0.924-0.817,1.642-1.741,1.604c-0.665-0.027-1.25-0.445-1.491-1.065c0,0-1.674-4.098-2.194-5.772
	c-3.175-9.871-6.061-19.376-8.293-29.267c-3.463-15.393-7.158-30.402-9.275-46.661c-1.289-9.832-2.752-19.703-3.598-29.594
	c-0.943-10.891-1.732-21.782-2.04-32.711c-0.135-4.772,1.924-6.523,6.658-6.523c5.388,0,10.795,0,16.182,0
	c4.118,0,5.984,1.924,5.984,5.907c0,45.795,0,91.59,0,137.386L404.759,835.64z M416.458,667.794c-5.773,0.231-11.68,0-17.548,0
	c-5.58,0-11.16,0-16.74,0c-4.195,0-6.331-1.674-6.196-5.907c0.366-12.68,0.808-23.244,1.924-35.559
	c0.097-1.741,0.42-3.461,0.962-5.118c0.308-1.128,1.472-1.792,2.599-1.484c0.422,0.115,0.798,0.358,1.076,0.696
	c0.859,0.791,1.586,1.713,2.155,2.732c8.247,14.998,19.618,28.049,33.346,38.272c0.148,0.1,0.29,0.209,0.423,0.327
	c1.289,1.289,2.155,1.655,2.155,4.079C420.326,667.929,417.863,667.756,416.458,667.794z M470.604,951.494
	c-5.422,0.389-10.611-2.265-13.469-6.889c-12.158-16.105-22.903-33.229-32.114-51.183c-1.276-2.724-2.002-5.673-2.136-8.678
	c-0.308-5.926-0.135-11.872,0-17.818c-0.349-2.762,1.607-5.285,4.369-5.634c0.344-0.044,0.692-0.051,1.037-0.023
	c13.367-0.872,26.61-3.11,39.522-6.677c11.539-3.146,22.726-7.466,33.384-12.892c4.926-2.463,6.619-2.136,9.621,2.444
	c14.341,21.743,28.638,43.505,42.89,65.287c7.697,11.75,15.393,23.507,23.09,35.27c0.528,0.721,0.968,1.502,1.308,2.328
	c1.02,2.617,0,4.252-2.713,4.483c-1.77,0.135-3.579,0-5.388,0h-99.402V951.494z M714.454,976.142
	c-18.106,17.087-38.272,31.248-61.689,40.08c-12.867,4.983-26.362,8.162-40.1,9.448c-38.81,3.309-73.407-8.543-104.694-30.787
	c-7.924-5.631-15.429-11.83-22.455-18.549l-0.673-0.654c-1.393-1.134-1.603-3.182-0.469-4.575c0.636-0.781,1.598-1.223,2.604-1.198
	H713.03c1.775-0.01,3.222,1.42,3.232,3.195c0.005,0.896-0.364,1.754-1.019,2.366L714.454,976.142z M778.74,711.338v87.453
	c0,27.727,0,55.455,0,83.182c-0.095,2.847-0.832,5.636-2.155,8.158c-9.96,20.152-21.911,39.258-35.674,57.032
	c-2.482,3.194-3.848,4.387-9.505,4.387c-0.962,0-1.924,0-2.963,0H626.462c-1.392,0.018-2.535-1.097-2.552-2.489
	c-0.006-0.48,0.125-0.952,0.378-1.36l1.212-1.924c1.924-3.617,4.252-7.042,6.446-10.525
	c38.804-61.484,77.621-122.961,116.451-184.431c7.774-12.353,15.56-24.693,23.359-37.021l2.809-4.791
	c0.515-0.781,1.445-1.182,2.367-1.02C776.932,707.991,778.741,707.836,778.74,711.338L778.74,711.338z M799.906,832.08
	c-0.307,0.861-1.254,1.31-2.115,1.003c-0.653-0.233-1.092-0.848-1.099-1.542v-7.523c-0.077-44.076-0.077-88.165,0-132.267
	c0-4.233,1.924-6.003,6.138-6.023c4.945,0,9.89,0,14.835,0c4.137,0,6.407,1.924,6.254,6.023c-0.366,8.678-0.827,17.318-1.443,26.072
	c-0.443,6.523-1.174,13.027-1.924,19.511c-0.962,8.255-2.04,16.375-3.483,24.533c-2.752,15.393-6.08,32.057-9.621,45.468
	c-1.539,5.773-3.079,11.545-4.887,17.202L799.906,832.08z M802.6,523.655c4.842,15.94,8.806,32.134,11.872,48.508
	c1.924,10.891,3.848,21.801,5.291,32.711c1.097,8.158,1.924,15.855,2.578,24.61c0.866,10.718,1.385,22.263,1.655,32.153
	c0.115,4.426-1.924,6.157-6.311,6.177c-5.041,0-10.083,0-15.124,0c-4.079,0-5.926-1.924-5.926-5.946c0-46,0-92.001,0-138.001
	v-11.949c0.054-0.475,0.482-0.817,0.958-0.763c0.292,0.033,0.547,0.212,0.678,0.474c1.694,3.906,3.115,7.924,4.253,12.026H802.6z"/><path class="st1" d="M484.574,219.714c16.086,5.773,28.535,16.202,38.791,29.555c7.523,10.115,13.37,21.374,17.318,33.346
	c1.193,3.444,1.789,3.733,5.138,2.405c14.424-5.867,29.726-9.288,45.276-10.121c10.055-0.59,20.145-0.158,30.113,1.289
	c11.286,1.734,22.351,4.689,33,8.813c3.117,1.193,3.848,0.885,4.945-2.271c4.165-12.818,10.533-24.813,18.818-35.443
	c8.199-10.598,18.735-19.158,30.787-25.014c2.29-1.097,4.714-1.924,7.081-2.829c1.924-0.789,2.771-1.924,2.29-3.54
	c-1.039-3.502-2.136-6.985-3.367-10.448c-0.577-1.791-2.276-2.979-4.156-2.906c-2.232,0-4.464-0.308-6.735-0.346
	c-13.2-0.154-26.406-0.282-39.619-0.385c-1.665-0.069-3.246,0.733-4.175,2.117c-1.809,2.675-3.579,5.388-5.272,8.158
	c-0.999,1.384-0.783,3.3,0.5,4.426c6.454,6.212,9.465,15.186,8.062,24.033c-0.75,6.382-3.843,12.258-8.678,16.49
	c-5.842,5.316-13.71,7.823-21.551,6.869c-14.691-1.345-25.643-14.14-24.706-28.863c0.153-7.393,3.416-14.379,8.986-19.242
	c5.008-4.734,11.722-7.234,18.607-6.927c1.719,0.202,3.415-0.533,4.445-1.924c1.924-2.79,3.714-5.599,5.465-8.486
	c1.078-1.77,0.558-2.982-1.501-3.463c-2.295-0.554-4.631-0.927-6.985-1.116c-7.185-0.449-14.362,1.011-20.8,4.233
	c-2.167,1.262-4.947,0.528-6.209-1.639c-0.861-1.478-0.818-3.313,0.11-4.749c1.405-2.79,2.752-5.619,4.387-8.274
	c1.489-2.21,1.489-5.102,0-7.312c-4.426-8.082-8.678-16.278-13.065-24.398c-0.404-0.75-1.212-1.713-1.924-1.751
	c-0.712-0.038-1.52,0.943-1.924,1.674c-4.445,8.235-8.774,16.509-13.238,24.745c-1.337,2.067-1.337,4.726,0,6.792
	c1.635,2.79,3.098,5.773,4.56,8.601c1.306,2.154,0.618,4.958-1.536,6.264c-1.388,0.841-3.119,0.881-4.544,0.105l-1.693-0.789
	c-8.127-3.665-17.255-4.472-25.899-2.29c-2.424,0.616-2.886,1.751-1.635,3.848c1.597,2.598,3.329,5.118,4.964,7.697
	c1.011,1.626,2.82,2.582,4.733,2.501c2.234-0.008,4.463,0.198,6.658,0.616c14.773,3.695,23.755,18.666,20.06,33.439
	c-3.695,14.773-18.666,23.754-33.439,20.06c-14.773-3.695-23.754-18.666-20.06-33.439c1.228-4.91,3.783-9.386,7.386-12.94
	c1.809-1.828,1.924-2.752,0.558-4.945c-1.559-2.501-3.233-4.887-4.791-7.37c-1.057-1.754-3.02-2.755-5.061-2.578
	c-3.56,0.096-13.334,0.366-23.84,0.366c-10.506,0-14.431,0-21.955,0.385c-1.933-0.051-3.664,1.192-4.233,3.04
	c-1.039,3.002-1.924,6.003-2.963,9.024C481.014,217.828,481.63,218.655,484.574,219.714z"/></svg>